<svg xmlns="http://www.w3.org/2000/svg" style="display: none;">
    <symbol id="icon-facebook" viewBox="0 0 20 20">
        <path
            d="M20,10.1c0-5.5-4.5-10-10-10S0,4.5,0,10.1c0,5,3.7,9.1,8.4,9.9v-7H5.9v-2.9h2.5V7.9C8.4,5.4,9.9,4,12.2,4c1.1,0,2.2,0.2,2.2,0.2v2.5h-1.3c-1.2,0-1.6,0.8-1.6,1.6v1.9h2.8L13.9,13h-2.3v7C16.3,19.2,20,15.1,20,10.1z"
        ></path>
    </symbol>
    <symbol id="icon-twitter" viewBox="0 0 20 20">
        <path
            d="M2.9 0C1.3 0 0 1.3 0 2.9v14.3C0 18.7 1.3 20 2.9 20h14.3c1.6 0 2.9-1.3 2.9-2.9V2.9C20 1.3 18.7 0 17.1 0H2.9zm13.2 3.8L11.5 9l5.5 7.2h-4.3l-3.3-4.4-3.8 4.4H3.4l5-5.7-5.3-6.7h4.4l3 4 3.5-4h2.1zM14.4 15 6.8 5H5.6l7.7 10h1.1z"
        ></path>
    </symbol>
    <symbol id="icon-instagram" viewBox="0 0 20 20">
        <circle cx="10" cy="10" r="3.3"></circle>
        <path
            d="M14.2,0H5.8C2.6,0,0,2.6,0,5.8v8.3C0,17.4,2.6,20,5.8,20h8.3c3.2,0,5.8-2.6,5.8-5.8V5.8C20,2.6,17.4,0,14.2,0zM10,15c-2.8,0-5-2.2-5-5s2.2-5,5-5s5,2.2,5,5S12.8,15,10,15z M15.8,5C15.4,5,15,4.6,15,4.2s0.4-0.8,0.8-0.8s0.8,0.4,0.8,0.8S16.3,5,15.8,5z"
        ></path>
    </symbol>
    <symbol id="icon-youtube" viewBox="0 0 20 20">
        <path
            d="M15,0H5C2.2,0,0,2.2,0,5v10c0,2.8,2.2,5,5,5h10c2.8,0,5-2.2,5-5V5C20,2.2,17.8,0,15,0z M14.5,10.9l-6.8,3.8c-0.1,0.1-0.3,0.1-0.5,0.1c-0.5,0-1-0.4-1-1l0,0V6.2c0-0.5,0.4-1,1-1c0.2,0,0.3,0,0.5,0.1l6.8,3.8c0.5,0.3,0.7,0.8,0.4,1.3C14.8,10.6,14.6,10.8,14.5,10.9z"
        ></path>
    </symbol>
    <symbol id="icon-whatsapp" viewBox="0 0 20 20">
        <path
            d="M10,0C4.5,0,0,4.5,0,10c0,1.9,0.5,3.6,1.4,5.1L0.1,20l5-1.3C6.5,19.5,8.2,20,10,20c5.5,0,10-4.5,10-10S15.5,0,10,0zM6.6,5.3c0.2,0,0.3,0,0.5,0c0.2,0,0.4,0,0.6,0.4c0.2,0.5,0.7,1.7,0.8,1.8c0.1,0.1,0.1,0.3,0,0.4C8.3,8.2,8.3,8.3,8.1,8.5C8,8.6,7.9,8.8,7.8,8.9C7.7,9,7.5,9.1,7.7,9.4c0.1,0.2,0.6,1.1,1.4,1.7c0.9,0.8,1.7,1.1,2,1.2c0.2,0.1,0.4,0.1,0.5-0.1c0.1-0.2,0.6-0.7,0.8-1c0.2-0.2,0.3-0.2,0.6-0.1c0.2,0.1,1.4,0.7,1.7,0.8s0.4,0.2,0.5,0.3c0.1,0.1,0.1,0.6-0.1,1.2c-0.2,0.6-1.2,1.1-1.7,1.2c-0.5,0-0.9,0.2-3-0.6c-2.5-1-4.1-3.6-4.2-3.7c-0.1-0.2-1-1.3-1-2.6c0-1.2,0.6-1.8,0.9-2.1C6.1,5.4,6.4,5.3,6.6,5.3z"
        ></path>
    </symbol>
    <symbol id="default-logo">
        <path
            fill="#152420"
            d="M60.515 8.956c.18.01.33.026.448.05v2.365a2.705 2.705 0 0 0-.519-.1 4.779 4.779 0 0 0-.674-.05 2.6 2.6 0 0 0-1.265.306c-.369.199-.66.476-.873.831-.213.355-.32.765-.32 1.229V20h-2.57V9.09h2.492v1.82h.114c.199-.63.54-1.116 1.022-1.457a2.815 2.815 0 0 1 1.67-.518c.142 0 .3.007.475.021Zm-10.989 6.456c0 .554-.116 1.016-.348 1.385-.227.365-.518.64-.873.824a2.357 2.357 0 0 1-1.101.277c-.616 0-1.113-.204-1.492-.611-.378-.407-.568-.956-.568-1.648V9.091h-2.57v6.946c0 .871.153 1.614.46 2.23.309.61.735 1.077 1.28 1.4.548.316 1.18.475 1.896.475.819 0 1.508-.194 2.066-.582a3.28 3.28 0 0 0 1.215-1.499h.113V20h2.493V9.09h-2.57v6.322ZM31.652 20h2.635v-6.179h6.044v-2.209h-6.044V7.663h6.683V5.455h-9.318V20ZM70.476 9.432c-.559-.322-1.214-.483-1.967-.483-.814 0-1.499.18-2.053.54-.549.36-.949.845-1.2 1.456h-.128V9.09h-2.457V20h2.57v-6.392c0-.526.098-.973.292-1.342.199-.37.471-.651.817-.846.35-.198.75-.298 1.2-.298.663 0 1.181.206 1.556.618.378.412.568.982.568 1.712V20h2.57v-6.946c.005-.871-.148-1.612-.46-2.223a3.253 3.253 0 0 0-1.308-1.4Zm34.661-.497c-.625 0-1.181.172-1.669.518-.483.341-.824.826-1.023 1.456h-.113V9.091h-2.493V20h2.571v-6.413c0-.464.106-.874.319-1.229.213-.355.505-.632.874-.831a2.6 2.6 0 0 1 1.264-.305c.218 0 .443.016.675.05.237.028.409.06.518.099V9.006a3.185 3.185 0 0 0-.447-.05 5.934 5.934 0 0 0-.476-.021Zm-10.513 6.477c0 .554-.116 1.016-.348 1.385-.227.365-.518.64-.874.824a2.358 2.358 0 0 1-1.1.277c-.616 0-1.113-.204-1.492-.611-.379-.407-.568-.956-.568-1.648V9.091H87.67v6.946c0 .871.154 1.614.461 2.23.308.61.734 1.077 1.279 1.4.55.316 1.181.475 1.896.475.82 0 1.508-.194 2.067-.582a3.28 3.28 0 0 0 1.214-1.499h.114V20h2.493V9.09h-2.571v6.322ZM117 15.249h-7.594c.008.605.118 1.131.342 1.57.232.449.557.795.973 1.036.417.237.905.355 1.463.355.374 0 .713-.052 1.016-.156.303-.109.566-.268.788-.476.223-.208.391-.466.505-.774l2.4.27a3.737 3.737 0 0 1-.866 1.662c-.422.469-.962.833-1.62 1.094-.658.255-1.411.383-2.258.383-1.094 0-2.039-.227-2.834-.682a4.614 4.614 0 0 1-1.825-1.946c-.426-.843-.639-1.835-.639-2.976 0-1.122.213-2.107.639-2.954.431-.852 1.032-1.515 1.804-1.989.771-.478 1.678-.717 2.72-.717.672 0 1.307.109 1.903.327a4.294 4.294 0 0 1 1.591.994c.464.45.829 1.023 1.094 1.719.265.69.398 1.515.398 2.471v.789Zm-2.465-1.733a2.772 2.772 0 0 0-.319-1.314 2.329 2.329 0 0 0-.874-.916c-.369-.223-.8-.334-1.293-.334-.525 0-.987.128-1.385.383a2.652 2.652 0 0 0-.93.995c-.194.361-.29.76-.315 1.186h5.116ZM74.858 20h2.571V9.09h-2.57V20Zm1.293-15.249c-.407 0-.758.138-1.051.412-.294.27-.44.6-.44.988 0 .383.146.712.44.987a1.5 1.5 0 0 0 1.05.405c.413 0 .763-.135 1.052-.405.294-.275.44-.604.44-.987a1.29 1.29 0 0 0-.44-.988 1.47 1.47 0 0 0-1.051-.412Zm8.823 13.196c-.133.024-.28.036-.44.036-.214 0-.408-.033-.583-.1a.843.843 0 0 1-.426-.369c-.104-.184-.156-.45-.156-.795v-5.64h2.152V9.092h-2.152V6.477h-2.571v2.614h-1.549v1.989h1.549v6.065c-.005.682.142 1.25.44 1.704.303.455.712.791 1.229 1.009.516.213 1.096.31 1.74.291a4.82 4.82 0 0 0 .923-.1c.256-.056.452-.108.59-.156l-.434-2.01a3.73 3.73 0 0 1-.312.064ZM25 3.75v15c0 2.125-1.625 3.75-3.75 3.75H20v1.25c0 .75-.5 1.25-1.25 1.25s-1.25-.5-1.25-1.25V22.5h-10v1.25C7.5 24.5 7 25 6.25 25S5 24.5 5 23.75V22.5H3.75C1.625 22.5 0 20.875 0 18.75v-15C0 1.625 1.625 0 3.75 0h17.5C23.375 0 25 1.625 25 3.75Zm-2.5 8.75h-20v6.25C2.5 19.5 3 20 3.75 20h17.5c.75 0 1.25-.5 1.25-1.25V12.5Zm0-8.75c0-.75-.5-1.25-1.25-1.25H3.75C3 2.5 2.5 3 2.5 3.75V10h20V3.75ZM14.375 5h-3.75c-.75 0-1.25.5-1.25 1.25s.5 1.25 1.25 1.25h3.75c.75 0 1.25-.5 1.25-1.25S15.125 5 14.375 5Zm-3.75 12.5h3.75c.75 0 1.25-.5 1.25-1.25s-.5-1.25-1.25-1.25h-3.75c-.75 0-1.25.5-1.25 1.25s.5 1.25 1.25 1.25Z"
        ></path>
    </symbol>
    <symbol id="search-button">
        <path
            d="M14.8,13.7L12,11c0.9-1.2,1.5-2.6,1.5-4.2c0-3.7-3-6.8-6.8-6.8S0,3,0,6.8s3,6.8,6.8,6.8c1.6,0,3.1-0.6,4.2-1.5l2.8,2.8c0.1,0.1,0.3,0.2,0.5,0.2s0.4-0.1,0.5-0.2C15.1,14.5,15.1,14,14.8,13.7z M1.5,6.8c0-2.9,2.4-5.2,5.2-5.2S12,3.9,12,6.8S9.6,12,6.8,12S1.5,9.6,1.5,6.8z"
        ></path>
    </symbol>
    <symbol id="loader">
        <circle
            cx="12"
            cy="12"
            r="10"
            opacity="0.2"
            fill="none"
            stroke="currentColor"
            stroke-miterlimit="10"
            stroke-width="2"
        ></circle>

        <path
            d="m12,2c5.52,0,10,4.48,10,10"
            fill="none"
            stroke="currentColor"
            stroke-linecap="round"
            stroke-miterlimit="10"
            stroke-width="2"
        >
            <animatetransform
                attributeName="transform"
                attributeType="XML"
                type="rotate"
                dur="0.6s"
                from="0 12 12"
                to="360 12 12"
                repeatCount="indefinite"
            ></animatetransform>
        </path>
    </symbol>
</svg>