<svg xmlns="http://www.w3.org/2000/svg" style="display: none;">
    <symbol id="facebook-icon" viewBox="0 0 20 20">
        <path
            d="M20,10.1c0-5.5-4.5-10-10-10S0,4.5,0,10.1c0,5,3.7,9.1,8.4,9.9v-7H5.9v-2.9h2.5V7.9C8.4,5.4,9.9,4,12.2,4c1.1,0,2.2,0.2,2.2,0.2v2.5h-1.3c-1.2,0-1.6,0.8-1.6,1.6v1.9h2.8L13.9,13h-2.3v7C16.3,19.2,20,15.1,20,10.1z"
        ></path>
    </symbol>
    <symbol id="twitter-icon" viewBox="0 0 20 20">
        <path
            d="M2.9 0C1.3 0 0 1.3 0 2.9v14.3C0 18.7 1.3 20 2.9 20h14.3c1.6 0 2.9-1.3 2.9-2.9V2.9C20 1.3 18.7 0 17.1 0H2.9zm13.2 3.8L11.5 9l5.5 7.2h-4.3l-3.3-4.4-3.8 4.4H3.4l5-5.7-5.3-6.7h4.4l3 4 3.5-4h2.1zM14.4 15 6.8 5H5.6l7.7 10h1.1z"
        ></path>
    </symbol>
    <symbol id="instagram-icon" viewBox="0 0 20 20">
        <circle cx="10" cy="10" r="3.3"></circle>
        <path
            d="M14.2,0H5.8C2.6,0,0,2.6,0,5.8v8.3C0,17.4,2.6,20,5.8,20h8.3c3.2,0,5.8-2.6,5.8-5.8V5.8C20,2.6,17.4,0,14.2,0zM10,15c-2.8,0-5-2.2-5-5s2.2-5,5-5s5,2.2,5,5S12.8,15,10,15z M15.8,5C15.4,5,15,4.6,15,4.2s0.4-0.8,0.8-0.8s0.8,0.4,0.8,0.8S16.3,5,15.8,5z"
        ></path>
    </symbol>
    <symbol id="youtube-icon" viewBox="0 0 20 20">
        <path
            d="M15,0H5C2.2,0,0,2.2,0,5v10c0,2.8,2.2,5,5,5h10c2.8,0,5-2.2,5-5V5C20,2.2,17.8,0,15,0z M14.5,10.9l-6.8,3.8c-0.1,0.1-0.3,0.1-0.5,0.1c-0.5,0-1-0.4-1-1l0,0V6.2c0-0.5,0.4-1,1-1c0.2,0,0.3,0,0.5,0.1l6.8,3.8c0.5,0.3,0.7,0.8,0.4,1.3C14.8,10.6,14.6,10.8,14.5,10.9z"
        ></path>
    </symbol>
    <symbol id="whatsapp-icon" viewBox="0 0 20 20">
        <path
            d="M10,0C4.5,0,0,4.5,0,10c0,1.9,0.5,3.6,1.4,5.1L0.1,20l5-1.3C6.5,19.5,8.2,20,10,20c5.5,0,10-4.5,10-10S15.5,0,10,0zM6.6,5.3c0.2,0,0.3,0,0.5,0c0.2,0,0.4,0,0.6,0.4c0.2,0.5,0.7,1.7,0.8,1.8c0.1,0.1,0.1,0.3,0,0.4C8.3,8.2,8.3,8.3,8.1,8.5C8,8.6,7.9,8.8,7.8,8.9C7.7,9,7.5,9.1,7.7,9.4c0.1,0.2,0.6,1.1,1.4,1.7c0.9,0.8,1.7,1.1,2,1.2c0.2,0.1,0.4,0.1,0.5-0.1c0.1-0.2,0.6-0.7,0.8-1c0.2-0.2,0.3-0.2,0.6-0.1c0.2,0.1,1.4,0.7,1.7,0.8s0.4,0.2,0.5,0.3c0.1,0.1,0.1,0.6-0.1,1.2c-0.2,0.6-1.2,1.1-1.7,1.2c-0.5,0-0.9,0.2-3-0.6c-2.5-1-4.1-3.6-4.2-3.7c-0.1-0.2-1-1.3-1-2.6c0-1.2,0.6-1.8,0.9-2.1C6.1,5.4,6.4,5.3,6.6,5.3z"
        ></path>
    </symbol>
    <symbol id="default-logo">
        <path
            fill="#152420"
            d="M60.515 8.956c.18.01.33.026.448.05v2.365a2.705 2.705 0 0 0-.519-.1 4.779 4.779 0 0 0-.674-.05 2.6 2.6 0 0 0-1.265.306c-.369.199-.66.476-.873.831-.213.355-.32.765-.32 1.229V20h-2.57V9.09h2.492v1.82h.114c.199-.63.54-1.116 1.022-1.457a2.815 2.815 0 0 1 1.67-.518c.142 0 .3.007.475.021Zm-10.989 6.456c0 .554-.116 1.016-.348 1.385-.227.365-.518.64-.873.824a2.357 2.357 0 0 1-1.101.277c-.616 0-1.113-.204-1.492-.611-.378-.407-.568-.956-.568-1.648V9.091h-2.57v6.946c0 .871.153 1.614.46 2.23.309.61.735 1.077 1.28 1.4.548.316 1.18.475 1.896.475.819 0 1.508-.194 2.066-.582a3.28 3.28 0 0 0 1.215-1.499h.113V20h2.493V9.09h-2.57v6.322ZM31.652 20h2.635v-6.179h6.044v-2.209h-6.044V7.663h6.683V5.455h-9.318V20ZM70.476 9.432c-.559-.322-1.214-.483-1.967-.483-.814 0-1.499.18-2.053.54-.549.36-.949.845-1.2 1.456h-.128V9.09h-2.457V20h2.57v-6.392c0-.526.098-.973.292-1.342.199-.37.471-.651.817-.846.35-.198.75-.298 1.2-.298.663 0 1.181.206 1.556.618.378.412.568.982.568 1.712V20h2.57v-6.946c.005-.871-.148-1.612-.46-2.223a3.253 3.253 0 0 0-1.308-1.4Zm34.661-.497c-.625 0-1.181.172-1.669.518-.483.341-.824.826-1.023 1.456h-.113V9.091h-2.493V20h2.571v-6.413c0-.464.106-.874.319-1.229.213-.355.505-.632.874-.831a2.6 2.6 0 0 1 1.264-.305c.218 0 .443.016.675.05.237.028.409.06.518.099V9.006a3.185 3.185 0 0 0-.447-.05 5.934 5.934 0 0 0-.476-.021Zm-10.513 6.477c0 .554-.116 1.016-.348 1.385-.227.365-.518.64-.874.824a2.358 2.358 0 0 1-1.1.277c-.616 0-1.113-.204-1.492-.611-.379-.407-.568-.956-.568-1.648V9.091H87.67v6.946c0 .871.154 1.614.461 2.23.308.61.734 1.077 1.279 1.4.55.316 1.181.475 1.896.475.82 0 1.508-.194 2.067-.582a3.28 3.28 0 0 0 1.214-1.499h.114V20h2.493V9.09h-2.571v6.322ZM117 15.249h-7.594c.008.605.118 1.131.342 1.57.232.449.557.795.973 1.036.417.237.905.355 1.463.355.374 0 .713-.052 1.016-.156.303-.109.566-.268.788-.476.223-.208.391-.466.505-.774l2.4.27a3.737 3.737 0 0 1-.866 1.662c-.422.469-.962.833-1.62 1.094-.658.255-1.411.383-2.258.383-1.094 0-2.039-.227-2.834-.682a4.614 4.614 0 0 1-1.825-1.946c-.426-.843-.639-1.835-.639-2.976 0-1.122.213-2.107.639-2.954.431-.852 1.032-1.515 1.804-1.989.771-.478 1.678-.717 2.72-.717.672 0 1.307.109 1.903.327a4.294 4.294 0 0 1 1.591.994c.464.45.829 1.023 1.094 1.719.265.69.398 1.515.398 2.471v.789Zm-2.465-1.733a2.772 2.772 0 0 0-.319-1.314 2.329 2.329 0 0 0-.874-.916c-.369-.223-.8-.334-1.293-.334-.525 0-.987.128-1.385.383a2.652 2.652 0 0 0-.93.995c-.194.361-.29.76-.315 1.186h5.116ZM74.858 20h2.571V9.09h-2.57V20Zm1.293-15.249c-.407 0-.758.138-1.051.412-.294.27-.44.6-.44.988 0 .383.146.712.44.987a1.5 1.5 0 0 0 1.05.405c.413 0 .763-.135 1.052-.405.294-.275.44-.604.44-.987a1.29 1.29 0 0 0-.44-.988 1.47 1.47 0 0 0-1.051-.412Zm8.823 13.196c-.133.024-.28.036-.44.036-.214 0-.408-.033-.583-.1a.843.843 0 0 1-.426-.369c-.104-.184-.156-.45-.156-.795v-5.64h2.152V9.092h-2.152V6.477h-2.571v2.614h-1.549v1.989h1.549v6.065c-.005.682.142 1.25.44 1.704.303.455.712.791 1.229 1.009.516.213 1.096.31 1.74.291a4.82 4.82 0 0 0 .923-.1c.256-.056.452-.108.59-.156l-.434-2.01a3.73 3.73 0 0 1-.312.064ZM25 3.75v15c0 2.125-1.625 3.75-3.75 3.75H20v1.25c0 .75-.5 1.25-1.25 1.25s-1.25-.5-1.25-1.25V22.5h-10v1.25C7.5 24.5 7 25 6.25 25S5 24.5 5 23.75V22.5H3.75C1.625 22.5 0 20.875 0 18.75v-15C0 1.625 1.625 0 3.75 0h17.5C23.375 0 25 1.625 25 3.75Zm-2.5 8.75h-20v6.25C2.5 19.5 3 20 3.75 20h17.5c.75 0 1.25-.5 1.25-1.25V12.5Zm0-8.75c0-.75-.5-1.25-1.25-1.25H3.75C3 2.5 2.5 3 2.5 3.75V10h20V3.75ZM14.375 5h-3.75c-.75 0-1.25.5-1.25 1.25s.5 1.25 1.25 1.25h3.75c.75 0 1.25-.5 1.25-1.25S15.125 5 14.375 5Zm-3.75 12.5h3.75c.75 0 1.25-.5 1.25-1.25s-.5-1.25-1.25-1.25h-3.75c-.75 0-1.25.5-1.25 1.25s.5 1.25 1.25 1.25Z"
        ></path>
    </symbol>
    <symbol id="search-button">
        <path
            d="M14.8,13.7L12,11c0.9-1.2,1.5-2.6,1.5-4.2c0-3.7-3-6.8-6.8-6.8S0,3,0,6.8s3,6.8,6.8,6.8c1.6,0,3.1-0.6,4.2-1.5l2.8,2.8c0.1,0.1,0.3,0.2,0.5,0.2s0.4-0.1,0.5-0.2C15.1,14.5,15.1,14,14.8,13.7z M1.5,6.8c0-2.9,2.4-5.2,5.2-5.2S12,3.9,12,6.8S9.6,12,6.8,12S1.5,9.6,1.5,6.8z"
        ></path>
    </symbol>
    <symbol id="loader">
        <circle
            cx="12"
            cy="12"
            r="10"
            opacity="0.2"
            fill="none"
            stroke="currentColor"
            stroke-miterlimit="10"
            stroke-width="2"
        ></circle>

        <path
            d="m12,2c5.52,0,10,4.48,10,10"
            fill="none"
            stroke="currentColor"
            stroke-linecap="round"
            stroke-miterlimit="10"
            stroke-width="2"
        >
            <animatetransform
                attributeName="transform"
                attributeType="XML"
                type="rotate"
                dur="0.6s"
                from="0 12 12"
                to="360 12 12"
                repeatCount="indefinite"
            ></animatetransform>
        </path>
    </symbol>
    <symbol id="account-icon">
        <path
            d="M7.5,0C3.4,0,0,3.4,0,7.5c0,1.7,0.5,3.2,1.5,4.5c1.4,1.9,3.6,3,6,3s4.6-1.1,6-3c1-1.3,1.5-2.9,1.5-4.5C15,3.4,11.6,0,7.5,0zM7.5,13.5c-1.4,0-2.8-0.5-3.8-1.4c1.1-0.9,2.4-1.4,3.8-1.4s2.8,0.5,3.8,1.4C10.3,13,8.9,13.5,7.5,13.5z M12.3,11c-1.3-1.1-3-1.8-4.8-1.8S4,9.9,2.7,11c-0.8-1-1.2-2.2-1.2-3.5c0-3.3,2.7-6,6-6s6,2.7,6,6C13.5,8.8,13.1,10,12.3,11zM7.5,3C6.1,3,5,4.1,5,5.5S6.1,8,7.5,8S10,6.9,10,5.5S8.9,3,7.5,3zM7.5,6.5c-0.5,0-1-0.5-1-1s0.5-1,1-1s1,0.5,1,1S8,6.5,7.5,6.5z"
        ></path>
    </symbol>
    <symbol id="wishlist-icon">
        <path
            d="M7.5,13.9l-0.4-0.3c-0.2-0.2-4.6-3.5-5.8-4.8C0.4,7.7-0.1,6.4,0,5.1c0.1-1.2,0.7-2.2,1.6-3c0.9-0.8,2.3-1,3.6-0.8C6.1,1.5,6.9,2,7.5,2.6c0.6-0.6,1.4-1.1,2.4-1.3c1.3-0.2,2.6,0,3.5,0.8l0,0c0.9,0.7,1.5,1.8,1.6,3c0.1,1.3-0.3,2.6-1.3,3.7c-1.2,1.4-5.6,4.7-5.7,4.8L7.5,13.9z M4.2,2.7C3.6,2.7,3,2.9,2.5,3.3c-0.6,0.5-0.9,1.2-1,1.9C1.4,6.1,1.8,7,2.4,7.8c0.9,1,3.9,3.4,5.1,4.3c1.2-0.9,4.2-3.3,5.1-4.3c0.7-0.8,1-1.7,0.9-2.6c-0.1-0.8-0.4-1.4-1-1.9l0,0c-0.6-0.5-1.5-0.7-2.3-0.5C9.3,3,8.6,3.5,8.2,4.2L7.5,5.4L6.8,4.2C6.4,3.5,5.7,3,4.9,2.8C4.7,2.8,4.4,2.7,4.2,2.7z"
        ></path>
    </symbol>
    <symbol id="chair-icon" viewBox="0 0 16.875 24">
        <path
            d="M15.938 9.375c.517 0 .937-.42.937-.938v-3.75A4.693 4.693 0 0 0 12.187 0h-7.5A4.693 4.693 0 0 0 0 4.688v3.75c0 .517.42.937.938.937h.937v2.036A2.817 2.817 0 0 0 0 14.063v1.874c0 .518.42.938.938.938h.937v6.188a.937.937 0 1 0 1.875 0v-2.438h9.375v2.438a.937.937 0 1 0 1.875 0v-6.188h.938c.517 0 .937-.42.937-.938v-1.874A2.817 2.817 0 0 0 15 11.41V9.375h.938ZM1.874 4.687a2.816 2.816 0 0 1 2.813-2.812h7.5A2.816 2.816 0 0 1 15 4.688V7.5H1.875V4.687Zm11.25 14.063H3.75v-1.875h9.375v1.875ZM15 15H1.875v-.938c0-.516.42-.937.938-.937h11.25c.516 0 .937.42.937.938V15Zm-1.875-3.75H3.75V9.375h9.375v1.875Z"
        ></path>
    </symbol>
    <symbol id='storage-icon' viewBox="0 0 24 23.156">
        <path
            d="M23.062 0H.937C.42 0 0 .405 0 .905s.42.904.938.904h.937v18.633c0 .5.42.905.938.905h.937v.904c0 .5.42.905.938.905s.937-.405.937-.905v-.904h12.75v.904c0 .5.42.905.938.905s.937-.405.937-.905v-.904h.938c.517 0 .937-.405.937-.905V1.81h.937c.518 0 .938-.405.938-.904S23.58 0 23.062 0Zm-12 1.809v17.729H3.75V1.809h7.312Zm9.188 17.729h-7.312V1.809h7.312v17.729Zm-12-5.427c.517 0 .937-.405.937-.905V8.141c0-.5-.42-.905-.938-.905s-.937.405-.937.905v5.065c0 .5.42.905.937.905Zm7.499 0c.518 0 .938-.405.938-.905V8.141c0-.5-.42-.905-.938-.905s-.937.405-.937.905v5.065c0 .5.42.905.937.905Z"
        ></path>
    </symbol>
    <symbol id="armchair-icon" viewBox="0 0 24 23.156">
        <path
            d="M20.386 7.24C19.919 3.172 16.335 0 12 0S4.08 3.173 3.614 7.24C1.61 7.308 0 8.902 0 10.854c0 1.31.731 2.498 1.875 3.13v4.65c0 1.495 1.262 2.713 2.812 2.713h.75v.904c0 .5.42.905.938.905s.938-.405.938-.905v-.904h9.375v.904c0 .5.42.905.937.905.518 0 .938-.405.938-.905v-.904h.75c1.55 0 2.812-1.218 2.812-2.714v-4.65c1.144-.63 1.875-1.818 1.875-3.129 0-1.95-1.61-3.545-3.615-3.614ZM12 1.808c3.442 0 6.274 2.57 6.542 5.826-1.211.6-2.042 1.818-2.042 3.22v3.617h-9v-3.618c0-1.401-.83-2.618-2.042-3.219C5.726 4.38 8.558 1.81 12 1.81Zm8.882 10.74a.907.907 0 0 0-.632.856v5.228c0 .499-.42.905-.938.905H4.688c-.516 0-.937-.406-.937-.905v-5.228a.907.907 0 0 0-.632-.855 1.795 1.795 0 0 1-1.243-1.696c0-.997.841-1.809 1.875-1.809s1.875.812 1.875 1.81v4.522c0 .5.42.904.938.904h10.874c.518 0 .938-.405.938-.904v-4.523c0-.997.841-1.809 1.875-1.809s1.875.812 1.875 1.81c0 .766-.5 1.447-1.243 1.695Zm-9.82-7.122c0-.5.42-.904.937-.904.518 0 .938.405.938.904s-.42.905-.938.905-.937-.405-.937-.905ZM8.25 8.141c0-.5.42-.905.938-.905.517 0 .937.405.937.905s-.42.904-.937.904c-.518 0-.938-.405-.938-.904Zm5.625 0c0-.5.42-.905.937-.905.518 0 .938.405.938.905s-.42.904-.938.904c-.517 0-.937-.405-.937-.904Zm-2.813 2.713c0-.5.42-.904.937-.904.518 0 .938.405.938.904s-.42.905-.938.905-.937-.405-.937-.905Z"
        ></path>
    </symbol>
    <symbol id="sofa-icon" viewBox="0 0 24 18.091">
        <path
            d="M22.125 5.583v-2.87C22.125 1.218 20.863 0 19.312 0h-5.437A2.86 2.86 0 0 0 12 .693 2.86 2.86 0 0 0 10.125 0H4.688C3.137 0 1.875 1.217 1.875 2.714v2.869C.784 5.956 0 6.962 0 8.14v3.618c0 1.496 1.262 2.713 2.813 2.713h.358l-1.197 2.31a.89.89 0 0 0 .42 1.213.954.954 0 0 0 1.257-.405l1.616-3.118h13.466l1.616 3.118a.954.954 0 0 0 1.258.405.89.89 0 0 0 .419-1.214l-1.197-2.309h.359c1.55 0 2.812-1.217 2.812-2.713V8.14c0-1.18-.784-2.185-1.875-2.558Zm-9.188-2.87c0-.498.421-.904.938-.904h5.437c.517 0 .938.406.938.905v2.869c-1.091.373-1.875 1.379-1.875 2.558v.904h-5.438V2.714Zm-9.187 0c0-.498.42-.904.938-.904h5.437c.517 0 .937.406.937.905v6.331H5.625v-.904c0-1.18-.784-2.185-1.875-2.558v-2.87Zm18.375 9.046c0 .499-.42.904-.937.904H2.813c-.517 0-.938-.405-.938-.904V8.14c0-.499.42-.905.938-.905.516 0 .937.406.937.905V9.95c0 .5.42.904.938.904h14.625c.517 0 .937-.405.937-.904V8.14c0-.498.42-.904.938-.904.516 0 .937.406.937.905v3.618Z"
        ></path>
    </symbol>
    <symbol id="bed-icon" viewBox="0 0 24 18.735">
        <path
            d="m22.143 9.562-.024-.008V4.666A4.671 4.671 0 0 0 17.454 0H6.547A4.671 4.671 0 0 0 1.88 4.666v4.888l-.023.008A2.792 2.792 0 0 0 0 12.188v3.761c0 .5.406.905.905.905h2.856v.975a.906.906 0 0 0 1.81 0v-.975H18.43v.975a.906.906 0 0 0 1.81 0v-.975h2.856c.499 0 .905-.406.905-.905v-3.76a2.792 2.792 0 0 0-1.857-2.627ZM3.69 9.367v-4.7A2.859 2.859 0 0 1 6.547 1.81h10.906a2.859 2.859 0 0 1 2.856 2.856v4.736h-1.95v-.975a2.789 2.789 0 0 0-2.786-2.786H13.88a2.78 2.78 0 0 0-1.857.712L12 6.374l-.023-.021a2.78 2.78 0 0 0-1.858-.712H8.427a2.789 2.789 0 0 0-2.786 2.786v.975h-1.95v-.035Zm12.857-.94v.975h-3.643v-.975c0-.538.438-.975.975-.975h1.693c.538 0 .975.437.975.975Zm-5.453 0v.975H7.452v-.975c0-.538.437-.975.975-.975h1.692c.538 0 .976.437.976.975ZM22.19 15.01v.035H1.81v-2.856c0-.538.438-.975.976-.975h18.428c.538 0 .976.437.976.975v2.82Zm-3.868 1.88h.072-.072Z"
        ></path>
    </symbol>
    <symbol id="table-icon" viewBox="0 0 24 18.025">
        <path
            d="M23.235 5.033a2.605 2.605 0 0 0-.942-.603V.903a.905.905 0 0 0-1.807 0v3.365h-.754V.903a.904.904 0 0 0-1.806 0v3.365h-.755V.903a.904.904 0 0 0-1.806 0v3.365H2.61C1.17 4.268 0 5.44 0 6.878v10.244a.904.904 0 0 0 1.806 0v-.804h6.73v.804c0 .498.405.903.903.903a.904.904 0 0 0 .903-.903V6.074H21.39a.804.804 0 0 1 .804.805v10.243a.904.904 0 0 0 1.806 0V6.879c0-.7-.271-1.355-.765-1.846ZM1.806 6.88c0-.444.361-.805.804-.805h5.926V9.39h-6.73V6.879Zm6.73 4.317v3.316h-6.73v-3.316h6.73Z"
        ></path>
        <path
            d="M6.025 6.83H4.318a.904.904 0 0 0 0 1.806h1.707a.904.904 0 0 0 0-1.807ZM4.318 13.757h1.707a.904.904 0 0 0 0-1.806H4.318a.904.904 0 0 0 0 1.806Z"
        ></path>
    </symbol>
    <symbol id="decor-icon" viewBox="0 0 24 23.156">
        <path
            d="M20.532 16.448A11.59 11.59 0 0 0 24 8.14c0-.5-.42-.905-.938-.905h-2.677C19.917 3.172 16.335 0 12 0S4.083 3.172 3.615 7.236H.937c-.517 0-.937.405-.937.905a11.59 11.59 0 0 0 3.468 8.307c2.036 2.01 4.704 3.204 7.595 3.417v1.482H6.375c-.518 0-.938.405-.938.904 0 .5.42.905.938.905h11.25c.518 0 .938-.405.938-.905s-.42-.904-.938-.904h-4.688v-1.482c2.89-.213 5.56-1.407 7.595-3.417ZM12 1.809c3.619 0 6.563 2.84 6.563 6.332S15.619 14.472 12 14.472s-6.563-2.84-6.563-6.331S8.381 1.809 12 1.809Zm0 16.281c-5.367 0-9.634-3.905-10.086-9.045h1.7c.469 4.065 4.05 7.236 8.386 7.236s7.917-3.171 8.385-7.236h1.7c-.45 5.14-4.718 9.045-10.085 9.045ZM8.994 8.328a.882.882 0 0 1 0-1.28l2.812-2.713a.962.962 0 0 1 1.326 0 .882.882 0 0 1 0 1.28L10.32 8.327a.962.962 0 0 1-1.326 0Zm1.875 2.339 2.812-2.714a.962.962 0 0 1 1.326 0 .882.882 0 0 1 0 1.28l-2.812 2.713c-.366.353-.96.353-1.326 0s-.366-.926 0-1.279Z"
        ></path>
    </symbol>
    <symbol id="address-icon" viewBox="0 0 15 15">
        <path
            d="M7.5,0C4.05365,0,1.25,2.80365,1.25,6.25c0,4.65576,5.66223,8.4845,5.90332,8.64502.10498.07019.22583.10498.34668.10498s.2417-.03479.34668-.10498c.24109-.16052,5.90332-3.98926,5.90332-8.64502,0-3.44635-2.80396-6.25-6.25-6.25ZM7.5,13.60657c-1.18561-.87952-5-3.97339-5-7.35657C2.5,3.49304,4.74304,1.25,7.5,1.25s5,2.24304,5,5c0,3.38318-3.81409,6.47705-5,7.35657ZM7.5,3.75c-1.37848,0-2.5,1.12152-2.5,2.5,0,1.37878,1.12152,2.5,2.5,2.5,1.37878,0,2.5-1.12122,2.5-2.5,0-1.37848-1.12122-2.5-2.5-2.5ZM7.5,7.5c-.68939,0-1.25-.56061-1.25-1.25s.56061-1.25,1.25-1.25c.68909,0,1.25.56061,1.25,1.25s-.56091,1.25-1.25,1.25Z"
        ></path>
    </symbol>
    <symbol id="phone-icon" viewBox="0 0 15 15">
        <path
            d="M12.3 15h-.2c-2.1-.2-4.1-1-5.9-2.1-1.6-1-3.1-2.5-4.1-4.1C1 7 .2 5 0 2.9-.1 1.8.7.8 1.8.7H4c1 0 1.9.7 2 1.7.1.6.2 1.1.4 1.7.3.7.1 1.6-.5 2.1l-.4.4c.7 1.1 1.7 2.1 2.9 2.9l.4-.5c.6-.6 1.4-.7 2.1-.5.6.3 1.1.4 1.7.5 1 .1 1.8 1 1.7 2v2c0 .5-.2 1-.6 1.4-.3.4-.8.6-1.4.6zM4 2.1H2c-.2 0-.3.1-.4.2-.1.1-.1.3-.1.4.2 1.9.8 3.7 1.8 5.3.9 1.5 2.2 2.7 3.7 3.7 1.6 1 3.4 1.7 5.3 1.9.2 0 .3-.1.4-.2.1-.1.2-.2.2-.4v-2c0-.3-.2-.5-.5-.6-.7-.1-1.3-.3-2-.5-.2-.1-.4 0-.6.1l-.8.9c-.2.2-.6.3-.9.1C6.4 10 5 8.6 4 6.9c-.2-.3-.1-.7.1-.9l.8-.8c.2-.2.2-.4.1-.6-.2-.6-.4-1.3-.5-2 0-.3-.2-.5-.5-.5zm7.7 4.5c-.4 0-.7-.2-.7-.6-.2-1-1-1.8-2-2-.4 0-.7-.4-.6-.8.1-.4.5-.7.9-.6 1.6.3 2.8 1.5 3.1 3.1.1.4-.2.8-.6.9h-.1zm2.6 0c-.4 0-.7-.3-.7-.6-.3-2.4-2.2-4.3-4.6-4.5-.4-.1-.7-.5-.6-.9 0-.4.4-.6.8-.6 3.1.3 5.4 2.7 5.8 5.8 0 .4-.3.7-.7.8z"
        ></path>
    </symbol>
    <symbol id="clock-icon" viewBox="0 0 15 15">
        <path
            d="M7.5,0C3.4,0,0,3.4,0,7.5S3.4,15,7.5,15S15,11.6,15,7.5S11.6,0,7.5,0z M7.5,13.6c-3.4,0-6.1-2.8-6.1-6.1c0-3.4,2.8-6.1,6.1-6.1c3.4,0,6.1,2.8,6.1,6.1C13.6,10.9,10.9,13.6,7.5,13.6z M10.8,9.2c-0.1,0.2-0.4,0.4-0.6,0.4c-0.1,0-0.2,0-0.3-0.1L7.2,8.1C7,8,6.8,7.8,6.8,7.5V4c0-0.4,0.3-0.7,0.7-0.7S8.2,3.6,8.2,4v3.1l2.4,1.2C10.9,8.4,11,8.8,10.8,9.2z"
        ></path>
    </symbol>
    <symbol id="linkedin-icon" viewBox="0 0 20 20">
        <path
            d="M18.6,0H1.4C0.6,0,0,0.6,0,1.4v17.1C0,19.4,0.6,20,1.4,20h17.1c0.8,0,1.4-0.6,1.4-1.4V1.4C20,0.6,19.4,0,18.6,0z M6,17.1h-3V7.6h3L6,17.1L6,17.1zM4.6,6.3c-1,0-1.7-0.8-1.7-1.7s0.8-1.7,1.7-1.7c0.9,0,1.7,0.8,1.7,1.7C6.3,5.5,5.5,6.3,4.6,6.3z M17.2,17.1h-3v-4.6c0-1.1,0-2.5-1.5-2.5c-1.5,0-1.8,1.2-1.8,2.5v4.7h-3V7.6h2.8v1.3h0c0.4-0.8,1.4-1.5,2.8-1.5c3,0,3.6,2,3.6,4.5V17.1z"
        ></path>
    </symbol>
    <symbol id="medium-icon" viewBox="0 0 20 20">
        <path
            d="M2.4,5.3c0-0.2-0.1-0.5-0.3-0.7L0.3,2.4V2.1H6l4.5,9.8l3.9-9.8H20v0.3l-1.6,1.5c-0.1,0.1-0.2,0.3-0.2,0.4v11.2c0,0.2,0,0.3,0.2,0.4l1.6,1.5v0.3h-7.8v-0.3l1.6-1.6c0.2-0.2,0.2-0.2,0.2-0.4V6.5L9.4,17.9H8.8L3.6,6.5v7.6c0,0.3,0.1,0.6,0.3,0.9L6,17.6v0.3H0v-0.3L2.1,15c0.2-0.2,0.3-0.6,0.3-0.9V5.3z"
        ></path>
    </symbol>
    <symbol id="right-arrow-icon" viewBox="0 0 20 13.549"
        style="width: 5rem; height: 5rem; margin: 10px">
        <path
            d="M19.755 7.402c-.015.018-.02.04-.037.057l-5.806 5.806a.965.965 0 0 1-1.369 0 .967.967 0 0 1 0-1.368l4.155-4.155H.968a.968.968 0 1 1 0-1.935h15.73l-4.155-4.155A.967.967 0 1 1 13.912.284l5.806 5.806c.02.02.028.047.046.069a.957.957 0 0 1 .162.244c.099.237.099.505 0 .743a.96.96 0 0 1-.17.256Z"
        ></path>
    </symbol>
    <symbol id="heart-icon" viewBox="0 0 15 15">
        <!-- <path
            class="ct-heart-fill"
        d="M12.9,3.8c-0.6-0.5-1.6-0.7-2.5-0.5C9.4,3.5,8.7,4,8.2,4.8L7.5,6.1L6.8,4.8C6.3,4,5.6,3.5,4.6,3.3C4.4,3.2,4.2,3.2,4,3.2c-0.7,0-1.4,0.2-1.9,0.6C1.5,4.3,1.1,5.1,1,5.9c-0.1,1,0.3,1.9,1,2.8c1,1.1,4.2,3.7,5.5,4.6c1.3-1,4.5-3.5,5.5-4.6c0.7-0.8,1.1-1.8,1-2.8C13.9,5.1,13.5,4.3,12.9,3.8z"
        ></path> -->
        <path
            d="M13.4,3.2c-0.9-0.8-2.3-1-3.5-0.8C8.9,2.6,8.1,3,7.5,3.7C6.9,3,6.1,2.6,5.2,2.4c-1.3-0.2-2.6,0-3.6,0.8C0.7,3.9,0.1,5,0,6.1c-0.1,1.3,0.3,2.6,1.3,3.7c1.2,1.4,5.6,4.7,5.8,4.8L7.5,15L8,14.6c0.2-0.1,4.5-3.5,5.7-4.8c1-1.1,1.4-2.4,1.3-3.7C14.9,5,14.3,3.9,13.4,3.2z M12.6,8.8c-0.9,1-3.9,3.4-5.1,4.3c-1.2-0.9-4.2-3.3-5.1-4.3c-0.7-0.8-1-1.7-0.9-2.6c0.1-0.8,0.4-1.4,1-1.9C3,4,3.6,3.8,4.2,3.8c0.2,0,0.4,0,0.6,0.1c0.9,0.2,1.6,0.7,2,1.4l0.7,1.2l0.7-1.2c0.4-0.8,1.1-1.3,2-1.4c0.8-0.2,1.7,0,2.3,0.5c0.6,0.5,1,1.2,1,1.9C13.6,7.2,13.2,8.1,12.6,8.8z"
        ></path>
    </symbol>
    <symbol id="loader-icon" viewBox="0 0 24 24">
        <circle
            cx="12"
            cy="12"
            r="10"
            opacity="0.2"
            fill="none"
            stroke="currentColor"
            stroke-miterlimit="10"
            stroke-width="2.5"
        ></circle>

        <path
            d="m12,2c5.52,0,10,4.48,10,10"
            fill="none"
            stroke="currentColor"
            stroke-linecap="round"
            stroke-miterlimit="10"
            stroke-width="2.5"
        >
            <animatetransform
                attributeName="transform"
                attributeType="XML"
                type="rotate"
                dur="0.5s"
                from="0 12 12"
                to="360 12 12"
                repeatCount="indefinite"
            ></animatetransform>
        </path>
    </symbol>
    <symbol id="compare-icon" viewBox="0 0 15 15">
        <path
            d="M7.5 6c-.1.5-.2 1-.3 1.4 0 .6-.1 1.3-.3 2-.2.7-.5 1.4-1 1.9-.5.6-1.3.9-2.2.9H0v-1.4h3.7c.6 0 .9-.2 1.2-.5.3-.3.5-.7.7-1.3.1-.5.2-1 .3-1.6v-.3c0-.5.1-1 .3-1.5.2-.7.5-1.4 1-1.9.5-.6 1.3-.9 2.2-.9h3l-1.6-1.6 1-1L15 3.5l-3.3 3.3-1-1 1.6-1.6h-3c-.6 0-.9.2-1.2.5-.2.3-.5.7-.6 1.3zM4.9 4.7c.2-.4.4-.9.7-1.3-.5-.4-1.1-.6-1.9-.6H0v1.4h3.7c.6 0 1 .2 1.2.5zm5.8 4.5 1.6 1.6h-3c-.6 0-.9-.2-1.2-.5-.2.4-.4.9-.6 1.3.5.4 1.1.6 1.8.6h3l-1.6 1.6 1 1 3.3-3.3-3.3-3.3-1 1z"
        ></path>
    </symbol>
    <symbol id="view-icon" viewBox="0 0 15 15">
        <path
            d="M7.5,5.5c-1.1,0-1.9,0.9-1.9,2s0.9,2,1.9,2s1.9-0.9,1.9-2S8.6,5.5,7.5,5.5z M14.7,6.9c-0.9-1.6-2.9-5.2-7.1-5.2S1.3,5.3,0.4,6.9L0,7.5l0.4,0.6c0.9,1.6,2.9,5.2,7.1,5.2s6.3-3.7,7.1-5.2L15,7.5L14.7,6.9zM7.5,11.8c-3.2,0-4.9-2.8-5.7-4.3C2.6,6,4.3,3.2,7.5,3.2s4.9,2.8,5.7,4.3C12.4,9,10.8,11.8,7.5,11.8z"
        ></path>
    </symbol>
    <symbol id="right-caret-icon" viewBox="0 0 15 15" fill="currentColor">
        <path
            d="M4.1,15c0.2,0,0.4-0.1,0.6-0.2L11.4,8c0.3-0.3,0.3-0.8,0-1.1L4.8,0.2C4.5-0.1,4-0.1,3.7,0.2C3.4,0.5,3.4,1,3.7,1.3l6.1,6.1l-6.2,6.2c-0.3,0.3-0.3,0.8,0,1.1C3.7,14.9,3.9,15,4.1,15z"
        ></path>
    </symbol>
    <symbol id="left-caret-icon" viewBox="0 0 15 15" fill="currentColor">
        <path
            d="M10.9,15c-0.2,0-0.4-0.1-0.6-0.2L3.6,8c-0.3-0.3-0.3-0.8,0-1.1l6.6-6.6c0.3-0.3,0.8-0.3,1.1,0c0.3,0.3,0.3,0.8,0,1.1L5.2,7.4l6.2,6.2c0.3,0.3,0.3,0.8,0,1.1C11.3,14.9,11.1,15,10.9,15z"
        ></path>
    </symbol>
</svg>